<?xml version="1.0" encoding="utf-8"?>
<!-- Generator: Adobe Illustrator 24.3.0, SVG Export Plug-In . SVG Version: 6.00 Build 0)  -->
<svg version="1.1" id="Capa_1" xmlns="http://www.w3.org/2000/svg" xmlns:xlink="http://www.w3.org/1999/xlink" x="0px" y="0px"
	 viewBox="0 0 500 500" style="enable-background:new 0 0 500 500;" xml:space="preserve">
<style type="text/css">
	.st0{fill:#999999;}
</style>
<path class="st0" d="M479.19,416.45L397.72,335c20.65-32.2,32.78-70.41,32.78-111.5c0-114.33-92.67-207-207-207s-207,92.67-207,207
	s92.67,207,207,207c41.09,0,79.28-12.13,111.48-32.78l81.45,81.46c5.75,5.75,15.16,5.75,20.91,0l41.85-41.82
	C484.93,431.61,484.93,422.19,479.19,416.45z M223.5,371.36c-81.52,0-147.85-66.33-147.85-147.85S141.98,75.65,223.5,75.65
	s147.85,66.33,147.85,147.85S305.02,371.36,223.5,371.36z"/>
</svg>
