<?xml version="1.0" encoding="utf-8"?>
<!-- Generator: Adobe Illustrator 24.0.3, SVG Export Plug-In . SVG Version: 6.00 Build 0)  -->
<svg version="1.1" id="Layer_1" xmlns="http://www.w3.org/2000/svg" xmlns:xlink="http://www.w3.org/1999/xlink" x="0px" y="0px"
	 viewBox="0 0 1024 1024" style="enable-background:new 0 0 1024 1024;" xml:space="preserve">
<style type="text/css">
	.st0{fill:#FFFFFF;}
</style>
<g id="surface1">
	<g>
		<path class="st0" d="M826.8,1008.3H197.2V788.9h629.5V1008.3z M244,961.6h536V835.7H244V961.6z"/>
	</g>
	<g>
		<path class="st0" d="M767.8,835.7H256.2V538.8C256.2,397.8,371,283,512,283s255.8,114.7,255.8,255.8V835.7z M303,788.9h418V538.8
			c0-115.2-93.8-209-209-209s-209,93.8-209,209V788.9z"/>
	</g>
	<g>
		<path class="st0" d="M512,210.8c-9.9,0-18-4.9-18-10.9V26.5c0-6,8.1-10.9,18-10.9c9.9,0,18,4.9,18,10.9v173.4
			C530,205.9,521.9,210.8,512,210.8z"/>
	</g>
	<g>
		<path class="st0" d="M803.4,444c0-9.9,4.9-18,10.9-18h173.4c6,0,10.9,8.1,10.9,18c0,9.9-4.9,18-10.9,18H814.2
			C808.2,462,803.4,454,803.4,444z"/>
	</g>
	<g>
		<path class="st0" d="M25.5,444c0-9.9,4.9-18,10.9-18h173.4c6,0,10.9,8.1,10.9,18c0,9.9-4.9,18-10.9,18H36.3
			C30.3,462,25.5,454,25.5,444z"/>
	</g>
	<g>
		<path class="st0" d="M216.5,136.4c7.6-6.4,16.9-7.9,20.8-3.3l112.1,132.3c3.9,4.6,0.9,13.5-6.7,19.9c-7.6,6.4-16.9,7.9-20.8,3.3
			L209.8,156.3C206,151.7,209,142.8,216.5,136.4z"/>
	</g>
	<g>
		<path class="st0" d="M835.8,147.7c6.4,7.6,7.9,16.9,3.3,20.8L706.8,280.6c-4.6,3.9-13.5,0.9-19.9-6.7c-6.4-7.6-7.9-16.9-3.3-20.8
			L815.9,141C820.5,137.2,829.4,140.2,835.8,147.7z"/>
	</g>
</g>
</svg>
